<svg xmlns="http://www.w3.org/2000/svg" version="1.1" xmlns:xlink="http://www.w3.org/1999/xlink" width="43" height="42"><svg width="43" height="42" viewBox="0 0 43 42" fill="none" xmlns="http://www.w3.org/2000/svg">
<rect x="0.5" width="42" height="42" rx="10" fill="#E52E3E"></rect>
<path opacity="0.7" d="M30.8686 16.8634L21.5383 24.2255C20.8103 24.8017 21.3897 25.9965 22.2612 25.7339C21.8086 25.8872 9.98863 29.8784 10.4649 24.7295L19.5047 17.5965C20.2192 17.0326 19.6753 15.8749 18.8358 16.0757C19.8577 15.755 32.1523 11.9894 30.8686 16.8634Z" fill="white"></path>
<path d="M29.0527 24.7172C29.0527 24.7736 29.046 24.8299 29.0359 24.8881C28.5443 27.5048 28.2099 30.1304 28.0461 32.7595C28.0207 33.1683 27.7235 33.5031 27.335 33.5577C24.5329 33.9436 21.9892 34.5621 19.6583 35.3656C20.3322 34.9639 20.9555 34.5656 21.5297 34.1744C21.6007 34.1251 21.6716 34.0775 21.7426 34.0282C21.8304 33.9683 21.9182 33.9066 22.0027 33.8467C23.0904 33.0802 23.9907 32.3542 24.717 31.711C24.7828 31.6546 24.8453 31.5982 24.9078 31.5401C25.1882 31.2863 25.4416 31.0485 25.6679 30.8247C25.8013 30.6943 25.9263 30.5692 26.0395 30.4511C26.1695 30.3189 26.2861 30.1938 26.3908 30.0793C26.4178 30.0511 26.4415 30.0247 26.4651 29.9982C26.8739 29.5507 27.1019 29.2511 27.1728 29.1542C27.1813 29.1436 27.188 29.1348 27.1914 29.1295H27.1897C27.1897 29.1295 27.1863 29.133 27.1847 29.1348C26.9245 29.3656 26.656 29.5912 26.379 29.8097C26.3638 29.8238 26.3469 29.8361 26.3317 29.8485C26.2928 29.8802 26.254 29.9101 26.2151 29.9383C26.1999 29.9524 26.1831 29.9648 26.1662 29.9753C26.0766 30.044 25.9871 30.1128 25.8959 30.1797C25.5311 30.4493 25.1544 30.7084 24.7676 30.9586C24.6697 31.0203 24.5734 31.0819 24.4754 31.1436C24.2795 31.2652 24.0802 31.385 23.8792 31.5031C23.7137 31.6018 23.5465 31.6969 23.3759 31.7903C23.2559 31.8573 23.136 31.9225 23.0144 31.9877C22.8877 32.0546 22.7611 32.1216 22.6327 32.1885C22.4705 32.2714 22.3084 32.3542 22.1445 32.4335C21.8051 32.6009 21.4639 32.763 21.1176 32.9181C21.1125 32.9216 21.1075 32.9233 21.1041 32.9251C20.9352 33.0009 20.7646 33.0749 20.5957 33.1489C20.4183 33.2264 20.2393 33.3004 20.0603 33.3744C19.8863 33.4467 19.7123 33.5172 19.5384 33.5859C18.3391 34.0617 17.123 34.474 15.9322 34.8317C15.7329 34.8916 15.5336 34.9515 15.336 35.0079C14.4273 35.2705 13.5389 35.5013 12.6876 35.704C12.5626 35.7339 12.4376 35.7621 12.3143 35.7903C11.9951 35.8643 11.6809 35.9348 11.3752 36C10.7807 32.4229 10.3601 28.911 10.1405 25.4696C10.1219 25.1806 10.2452 24.904 10.4648 24.7295C9.9885 29.8784 21.8084 25.8872 22.2611 25.7339C22.2662 25.7321 22.2695 25.7304 22.2712 25.7304C22.2712 25.7304 22.2724 25.7298 22.2746 25.7286L22.3928 25.6916L22.479 25.6634L22.5313 25.6476L22.7425 25.5806L22.8691 25.5401L23.033 25.4872L23.1191 25.4608C24.4484 25.0396 26.9718 24.2396 27.8552 23.9436L27.9413 23.9154L27.9903 23.8995C28.0106 23.8925 28.0309 23.8872 28.0528 23.8819C28.144 23.8608 28.2336 23.8555 28.3214 23.8661C28.3417 23.8661 28.3619 23.8714 28.3822 23.8766C28.3889 23.8766 28.3974 23.8766 28.4058 23.8802C28.4278 23.8854 28.4498 23.8907 28.47 23.8978C28.5595 23.926 28.644 23.9718 28.7183 24.0299C28.7335 24.0405 28.7487 24.0528 28.7639 24.0669C28.7757 24.0775 28.7876 24.0899 28.7994 24.1022C28.818 24.1198 28.8365 24.1392 28.8517 24.1603C28.8737 24.185 28.8923 24.2114 28.9109 24.2379C28.9987 24.3736 29.0527 24.5392 29.0527 24.7172Z" fill="white"></path>
<path d="M34.9222 6.51979C33.4545 9.822 32.1877 13.1313 31.154 16.4476C31.1016 16.6132 31.002 16.7577 30.8685 16.8634C32.1522 11.9894 19.8576 15.755 18.8358 16.0758C18.8324 16.0758 18.8307 16.0775 18.8273 16.0775C18.8189 16.0793 18.8104 16.0828 18.802 16.0846C18.7902 16.0881 18.78 16.0916 18.7682 16.0951L11.0645 18.5603C10.5257 18.733 9.98349 18.3013 10.0004 17.7145C10.0899 14.8176 10.35 11.9824 10.7959 9.21407C10.8415 8.92684 11.0273 8.68191 11.2841 8.56913C14.1183 7.3286 17.0032 6.43169 19.9353 5.84843C21.7663 5.48191 23.6141 5.23873 25.4805 5.1101C28.3704 4.91098 31.2992 4.98499 34.2669 5.30746C34.826 5.36737 35.1604 5.98763 34.9222 6.51979Z" fill="white"></path>
</svg><style>@media (prefers-color-scheme: light) { :root { filter: none; } }
@media (prefers-color-scheme: dark) { :root { filter: none; } }
</style></svg>